<?xml version="1.0" encoding="utf-8"?>
<!-- Generator: Adobe Illustrator 25.2.0, SVG Export Plug-In . SVG Version: 6.00 Build 0)  -->
<svg version="1.1" id="Layer_1" xmlns="http://www.w3.org/2000/svg" xmlns:xlink="http://www.w3.org/1999/xlink" x="0px" y="0px"
	 viewBox="0 0 500 500" style="enable-background:new 0 0 500 500;" xml:space="preserve">
<style type="text/css">
	.st0{fill:#FFFFFF;}
</style>
<g>
	<g id="ANNABA_3_">
		<path class="st0" d="M414.3,183L414.3,183c-0.1,0-0.8,3.6-1.4,5.6L411,195h6.4l-1.8-6.3C415,186.6,414.3,183,414.3,183"/>
		<path class="st0" d="M445.6,194.6h-4.8v6.8h4.8c2.3,0,3.5-1.6,3.5-3.4C449,196.1,447.9,194.6,445.6,194.6"/>
		<path class="st0" d="M288.9,218.6H500v-53.1H288.9V218.6z M322.2,208.2l-2-6.8h-10.2l-2,6.8h-8.2l11.1-32.6h8.4l11.1,32.6H322.2z
			 M361.3,208.2h-8l-9.1-15.2c-1.3-2.1-2.7-5.6-2.7-5.6h-0.1c0,0,0.4,3.5,0.4,5.6v15.2h-8v-32.6h8.1l9,15.2c1.3,2.1,2.7,5.6,2.7,5.6
			h0.1c0,0-0.4-3.5-0.4-5.6v-15.2h8V208.2z M395.7,208.2h-8l-9.1-15.2c-1.3-2.1-2.7-5.6-2.7-5.6h-0.1c0,0,0.4,3.5,0.4,5.6v15.2h-8
			v-32.6h8.1l9,15.2c1.3,2.1,2.7,5.6,2.7,5.6h0.1c0,0-0.4-3.5-0.4-5.6v-15.2h8V208.2z M421.3,208.2l-2-6.8h-10.2l-2,6.8h-8.2
			l11.1-32.6h8.4l11.1,32.6H421.3z M444.8,208.2h-12v-32.6h12c6.5,0,11.1,2.9,11.1,8.5c0,2.7-1.3,5.5-3.8,6.9v0.1
			c3.7,1.1,5.1,4.5,5.1,7.3C457.2,205.6,451.2,208.2,444.8,208.2 M480.8,208.2l-2-6.8h-10.2l-2,6.8h-8.2l11.1-32.6h8.4l11.1,32.6
			H480.8z"/>
		<path class="st0" d="M447.7,185.2c0-1.5-0.9-2.8-3-2.8h-4v5.8h4.1C446.9,188.2,447.7,186.8,447.7,185.2"/>
		<path class="st0" d="M315.2,183h-0.1c0,0-0.7,3.6-1.3,5.6l-1.9,6.3h6.4l-1.8-6.3C315.9,186.6,315.2,183,315.2,183"/>
		<path class="st0" d="M473.7,183L473.7,183c-0.1,0-0.8,3.6-1.4,5.6l-1.9,6.3h6.4l-1.8-6.3C474.5,186.6,473.7,183,473.7,183"/>
	</g>
	<g>
		<g>
			<path class="st0" d="M295.1,271.5c-1-2.9-2.6-5.2-4.5-7c-0.2-0.2-0.4-0.4-0.7-0.6c-0.7-0.6-1.5-1.1-2.2-1.5
				c-0.5-0.3-1.1-0.6-1.6-0.8c-0.9-0.4-1.8-0.7-2.7-0.9c-0.3-0.1-0.6-0.2-1-0.2c-1.6-0.3-3.3-0.5-5.2-0.5H270v1.5v39.6h7.1
				c4.5,0,8.3-1,11.4-3c0.6-0.4,1.3-0.9,1.8-1.4c0.3-0.3,0.6-0.6,0.9-0.9l0,0c0,0,0,0,0.1-0.1c0.4-0.4,0.8-0.9,1.1-1.3
				c2.6-3.4,4-8.1,4-14.1c0-2.9-0.4-5.6-1.1-7.9C295.3,272.1,295.2,271.8,295.1,271.5z"/>
			<polygon class="st0" points="350.9,261.2 344,287.2 358,287.2 351.1,261.2 			"/>
			<path class="st0" d="M0,226.3v108.2h500V226.3H0z M74.5,260H53v56H35.7v-56H14.2v-14.9h60.4V260z M128.9,316H83.1v-70.9h44.4V260
				h-27.1v12.9h21.6v14.9h-21.6v13.4h28.4V316z M192.3,311.8c-2.2,1.3-4.5,2.4-7.1,3.2c-3.9,1.3-8.2,2.1-13.1,2.1
				c-6.4,0-12.2-1.2-17.1-3.5c-1.1-0.5-2.2-1-3.2-1.7c-2.5-1.5-4.8-3.3-6.8-5.3c-0.8-0.8-1.6-1.7-2.3-2.6c-0.7-0.9-1.4-1.8-2-2.8
				c-3.7-5.8-5.7-13-5.7-20.9c0-20.6,15.3-36.5,37.2-36.5c0.6,0,1.2,0,1.8,0c1.2,0,2.4,0.1,3.6,0.3c1.8,0.2,3.6,0.6,5.4,1
				c1.2,0.3,2.3,0.7,3.5,1.1c0.6,0.2,1.1,0.4,1.7,0.7c1.1,0.5,2.2,1,3.3,1.6c1.1,0.6,2.1,1.2,3.1,1.9c1.5,1,2.9,2.2,4.2,3.5l-8,13.1
				c-0.6-0.5-1.2-1-1.8-1.5c-1-0.7-2-1.4-3-2c-1.4-0.8-2.9-1.5-4.5-2.1c-1.6-0.6-3.2-1-4.8-1.3c-0.4-0.1-0.8-0.1-1.2-0.2
				c-0.8-0.1-1.6-0.1-2.4-0.1c-14.2,0-20,10-20,20.2c0,10.5,6.3,21.3,20,21.3c1.8,0,3.5-0.2,5.2-0.7c0.9-0.2,1.7-0.5,2.5-0.8
				c0.4-0.2,0.8-0.3,1.2-0.5c1.2-0.5,2.4-1.2,3.6-1.8c0.8-0.5,1.5-1,2.2-1.5c1.4-1,2.8-2.2,4-3.4l8.9,12.7
				C198.3,307.7,195.6,309.9,192.3,311.8z M313.8,288.3c-0.7,3.7-1.8,7.2-3.3,10.2c-0.8,1.5-1.7,2.9-2.7,4.3
				c-0.7,0.9-1.4,1.7-2.1,2.5c-1.5,1.6-3.2,3-5,4.3c-0.9,0.6-1.9,1.2-2.9,1.8c-1,0.5-2,1-3.1,1.5c-1.1,0.4-2.2,0.8-3.4,1.2
				c-1.2,0.3-2.4,0.7-3.6,0.9c-3.1,0.6-6.4,1-9.8,1h-7.9h-17.3h-0.1v-27.7h-25.8V316h-17.3v-70.9h17.3v28.3h25.8v-28.3h17.3h7.9
				c3.5,0,6.8,0.3,9.8,0.9c2.9,0.6,5.6,1.4,8,2.5c0.3,0.2,0.7,0.3,1,0.5c0.9,0.4,1.7,0.9,2.5,1.3c1.5,0.9,2.9,1.9,4.2,3
				c0.8,0.7,1.5,1.4,2.3,2.1c0.6,0.6,1.1,1.3,1.7,1.9c0.5,0.6,1,1.3,1.4,1.9c0.6,0.9,1.2,1.9,1.7,2.9c1.6,3,2.7,6.4,3.3,10.1
				c0.4,2.5,0.7,5.1,0.7,7.9C314.4,283.2,314.2,285.8,313.8,288.3z M366.4,316l-4.4-14.9h-22.1l-4.3,14.9h-17.8l24.1-70.9h18.2
				l24.1,70.9H366.4z M398.7,316l-9.8-29l-14-41.8h17.4l9.6,27.3l16.1-27.3h17.3h0.1l-27.9,45.2l8.7,25.7H398.7z M458.1,317.1
				c-9.2,0-18.9-3.4-25.6-10.1l9.1-13.1c4,3.5,10.7,7.3,17,7.3c4.8,0,7.3-2.2,7.3-4.9c0-10-31.2-8.4-31.2-30.5
				c0-13,10.8-21.6,25.6-21.6c7.9,0,16,2.6,22.1,8l-7.3,14.1c-4-3.5-10.1-6.2-15.6-6.2c-5.2,0-7.5,2.2-7.5,5
				c0,10.1,31.2,7.7,31.2,30.1C483.2,307,474.4,317.1,458.1,317.1z"/>
		</g>
	</g>
</g>
</svg>
